<?xml version="1.0" encoding="UTF-8" standalone="no"?>
<!-- Created with Inkscape (http://www.inkscape.org/) -->

<svg
   xmlns:dc="http://purl.org/dc/elements/1.1/"
   xmlns:cc="http://creativecommons.org/ns#"
   xmlns:rdf="http://www.w3.org/1999/02/22-rdf-syntax-ns#"
   xmlns:svg="http://www.w3.org/2000/svg"
   xmlns="http://www.w3.org/2000/svg"
   xmlns:sodipodi="http://sodipodi.sourceforge.net/DTD/sodipodi-0.dtd"
   xmlns:inkscape="http://www.inkscape.org/namespaces/inkscape"
   width="84.666664mm"
   height="13.928225mm"
   viewBox="0 0 84.666664 13.928225"
   version="1.1"
   id="svg8"
   inkscape:version="0.92.5 (2060ec1f9f, 2020-04-08)"
   sodipodi:docname="rx_online.svg">
  <defs
     id="defs2" />
  <sodipodi:namedview
     id="base"
     pagecolor="#ffffff"
     bordercolor="#666666"
     borderopacity="1.0"
     inkscape:pageopacity="0.0"
     inkscape:pageshadow="2"
     inkscape:zoom="0.7"
     inkscape:cx="-207.96372"
     inkscape:cy="48.141458"
     inkscape:document-units="mm"
     inkscape:current-layer="layer1"
     showgrid="false"
     fit-margin-top="0"
     fit-margin-left="0"
     fit-margin-right="0"
     fit-margin-bottom="0"
     inkscape:window-width="1920"
     inkscape:window-height="1016"
     inkscape:window-x="0"
     inkscape:window-y="27"
     inkscape:window-maximized="1" />
  <metadata
     id="metadata5">
    <rdf:RDF>
      <cc:Work
         rdf:about="">
        <dc:format>image/svg+xml</dc:format>
        <dc:type
           rdf:resource="http://purl.org/dc/dcmitype/StillImage" />
        <dc:title />
      </cc:Work>
    </rdf:RDF>
  </metadata>
  <g
     inkscape:label="Layer 1"
     inkscape:groupmode="layer"
     id="layer1"
     transform="translate(-46.482301,-140.64099)">
    <flowRoot
       xml:space="preserve"
       id="flowRoot815"
       style="font-style:normal;font-variant:normal;font-weight:normal;font-stretch:normal;font-size:40px;line-height:1.25;font-family:Proxima-Regular;-inkscape-font-specification:Proxima-Regular;letter-spacing:0px;word-spacing:0px;fill:#000000;fill-opacity:1;stroke:none"
       transform="scale(0.26458333)"><flowRegion
         id="flowRegion817"
         style="font-style:normal;font-variant:normal;font-weight:normal;font-stretch:normal;font-family:Proxima-Regular;-inkscape-font-specification:Proxima-Regular"><rect
           id="rect819"
           width="297.14285"
           height="317.14285"
           x="-1088.5714"
           y="325.37683"
           style="font-style:normal;font-variant:normal;font-weight:normal;font-stretch:normal;font-family:Proxima-Regular;-inkscape-font-specification:Proxima-Regular" /></flowRegion><flowPara
         id="flowPara821" /></flowRoot>    <g
       id="g847"
       transform="matrix(0.54805579,0,0,0.54805579,35.501952,66.344394)">
      <g
         aria-label=".Online"
         transform="matrix(0.91023931,0,0,0.91023931,442.58401,-165.243)"
         style="font-style:normal;font-weight:normal;font-size:40px;line-height:1.25;font-family:sans-serif;letter-spacing:0px;word-spacing:0px;fill:#000000;fill-opacity:1;stroke:none"
         id="flowRoot823">
        <path
           d="m -420.97742,355.11016 q 0,-1.32 0.96,-2.28 0.96,-0.96 2.28,-0.96 1.32,0 2.28,0.96 0.96,0.96 0.96,2.28 0,1.32 -0.96,2.28 -0.96,0.96 -2.28,0.96 -1.32,0 -2.28,-0.96 -0.96,-0.96 -0.96,-2.28 z"
           style="font-style:normal;font-variant:normal;font-weight:normal;font-stretch:normal;font-family:Proxima-Bold;-inkscape-font-specification:Proxima-Bold"
           id="path828" />
        <path
           d="m -411.25748,344.59016 q 0,-3.96 1.8,-7.08 1.8,-3.16 4.96,-4.92 3.2,-1.8 7.16,-1.8 4,0 7.16,1.8 3.2,1.76 5,4.92 1.8,3.12 1.8,7.08 0,3.96 -1.8,7.12 -1.8,3.12 -5,4.92 -3.16,1.76 -7.16,1.76 -3.96,0 -7.16,-1.76 -3.16,-1.8 -4.96,-4.92 -1.8,-3.16 -1.8,-7.12 z m 22.04,0 q 0,-2.48 -1,-4.48 -1,-2 -2.88,-3.12 -1.84,-1.16 -4.24,-1.16 -2.4,0 -4.24,1.16 -1.84,1.12 -2.84,3.12 -1,2 -1,4.48 0,2.48 1,4.48 1,2 2.84,3.16 1.84,1.12 4.24,1.12 2.4,0 4.24,-1.12 1.88,-1.16 2.88,-3.16 1,-2 1,-4.48 z"
           style="font-style:normal;font-variant:normal;font-weight:normal;font-stretch:normal;font-family:Proxima-Bold;-inkscape-font-specification:Proxima-Bold"
           id="path830" />
        <path
           d="m -366.4575,346.23016 q 0,-1.92 -0.92,-2.76 -0.92,-0.84 -2.64,-0.84 -1.4,0 -2.56,0.68 -1.12,0.64 -1.84,1.6 v 13 h -5.08 v -19.32 h 5.08 v 2.52 q 1.04,-1.24 2.8,-2.12 1.76,-0.88 3.96,-0.88 3.12,0 4.68,1.64 1.6,1.64 1.6,4.52 v 13.64 h -5.08 z"
           style="font-style:normal;font-variant:normal;font-weight:normal;font-stretch:normal;font-family:Proxima-Bold;-inkscape-font-specification:Proxima-Bold"
           id="path832" />
        <path
           d="m -356.33756,331.23016 h 5.08 v 26.68 h -5.08 z"
           style="font-style:normal;font-variant:normal;font-weight:normal;font-stretch:normal;font-family:Proxima-Bold;-inkscape-font-specification:Proxima-Bold"
           id="path834" />
        <path
           d="m -343.69763,336.51016 q -1.24,0 -2.16,-0.88 -0.88,-0.92 -0.88,-2.16 0,-1.24 0.88,-2.12 0.92,-0.88 2.16,-0.88 1.28,0 2.16,0.88 0.88,0.88 0.88,2.12 0,1.24 -0.88,2.16 -0.88,0.88 -2.16,0.88 z m -2.52,2.08 h 5.08 v 19.32 h -5.08 z"
           style="font-style:normal;font-variant:normal;font-weight:normal;font-stretch:normal;font-family:Proxima-Bold;-inkscape-font-specification:Proxima-Bold"
           id="path836" />
        <path
           d="m -323.05769,346.23016 q 0,-1.92 -0.92,-2.76 -0.92,-0.84 -2.64,-0.84 -1.4,0 -2.56,0.68 -1.12,0.64 -1.84,1.6 v 13 h -5.08 v -19.32 h 5.08 v 2.52 q 1.04,-1.24 2.8,-2.12 1.76,-0.88 3.96,-0.88 3.12,0 4.68,1.64 1.6,1.64 1.6,4.52 v 13.64 h -5.08 z"
           style="font-style:normal;font-variant:normal;font-weight:normal;font-stretch:normal;font-family:Proxima-Bold;-inkscape-font-specification:Proxima-Bold"
           id="path838" />
        <path
           d="m -314.17775,348.23016 q 0,-2.8 1.28,-5.08 1.28,-2.32 3.56,-3.68 2.28,-1.36 5.16,-1.36 2.84,0 5.04,1.36 2.2,1.32 3.4,3.76 1.24,2.4 1.24,5.52 v 1.12 h -14.36 q 0.24,1.92 1.72,3.2 1.48,1.28 3.84,1.28 1.4,0 2.8,-0.52 1.44,-0.52 2.36,-1.4 l 2.24,3.28 q -1.4,1.28 -3.52,2 -2.12,0.68 -4.44,0.68 -2.92,0 -5.28,-1.24 -2.36,-1.28 -3.72,-3.56 -1.32,-2.32 -1.32,-5.36 z m 10,-6.08 q -2.16,0 -3.36,1.32 -1.2,1.28 -1.4,2.96 h 9.52 q -0.12,-1.64 -1.32,-2.96 -1.16,-1.32 -3.44,-1.32 z"
           style="font-style:normal;font-variant:normal;font-weight:normal;font-stretch:normal;font-family:Proxima-Bold;-inkscape-font-specification:Proxima-Bold"
           id="path840" />
      </g>
      <g
         aria-label="Rx"
         transform="matrix(0.91023931,0,0,0.91023931,402.53351,-165.37043)"
         style="font-style:normal;font-weight:normal;font-size:40px;line-height:1.25;font-family:sans-serif;letter-spacing:0px;word-spacing:0px;fill:#000000;fill-opacity:1;stroke:none"
         id="flowRoot837">
        <path
           d="m -410.37742,348.43016 h -4.16 v 9.48 h -5.68 v -26.68 h 12.48 q 2.72,0 4.76,1.12 2.04,1.08 3.12,3.04 1.08,1.96 1.08,4.44 0,3.28 -1.72,5.32 -1.68,2.04 -4.12,2.6 l 6,10.16 h -6.52 z m 5.8,-8.6 q 0,-1.64 -1.12,-2.6 -1.12,-1 -2.88,-1 h -5.96 v 7.2 h 5.96 q 1.76,0 2.88,-0.96 1.12,-1 1.12,-2.64 z"
           style="font-style:normal;font-variant:normal;font-weight:normal;font-stretch:normal;font-family:Proxima-Bold;-inkscape-font-specification:Proxima-Bold;fill:#ff0000"
           id="path843" />
        <path
           d="m -387.05744,351.39016 -4.44,6.52 h -5.64 l 6.84,-9.92 -6.44,-9.4 h 5.68 l 4,5.96 3.96,-5.96 h 5.68 l -6.48,9.4 6.92,9.92 h -5.68 z"
           style="font-style:normal;font-variant:normal;font-weight:normal;font-stretch:normal;font-family:Proxima-Bold;-inkscape-font-specification:Proxima-Bold;fill:#ff0000"
           id="path845" />
      </g>
    </g>
  </g>
</svg>
